<svg xmlns="http://www.w3.org/2000/svg" version="1.2" viewBox="0 0 512 512" id="asp-file"><path fill="#FFF" d="M422.3 477.9c0 7.6-6.2 13.8-13.8 13.8h-305c-7.6 0-13.8-6.2-13.8-13.8V34.1c0-7.6 6.2-13.8 13.8-13.8h230.1V109h88.7v368.9z"></path><path fill="#475563" d="M333.6 6H103.5C88 6 75.4 18.6 75.4 34.1v443.8c0 15.5 12.6 28.1 28.1 28.1h305c15.5 0 28.1-12.6 28.1-28.1V109.1L333.6 6zm88.7 471.9c0 7.6-6.2 13.8-13.8 13.8h-305c-7.6 0-13.8-6.2-13.8-13.8V34.1c0-7.6 6.2-13.8 13.8-13.8h230.1V109h88.7v368.9z"></path><path fill="#26333D" d="M333.6 6v103.1h103z"></path><path fill="#29363F" d="M465.9 450.8H46.1V308c0-9.8 7.9-17.7 17.7-17.7h384.3c9.8 0 17.7 7.9 17.7 17.7v142.8z"></path><path fill="#1B2730" d="M436.6 450.8v19.5l29.3-19.5zM75.4 450.8v19.5l-29.3-19.5z"></path><path fill="#475563" d="M64.1 308.4h383.7v124.5H64.1z"></path><g fill="#29363F"><path d="M298.3 78.6h-177a6.7 6.7 0 0 1 0-13.4h177a6.7 6.7 0 0 1 0 13.4zM298.3 110.6h-177a6.7 6.7 0 0 1 0-13.4h177a6.7 6.7 0 0 1 0 13.4zM391.8 142.5H121.3a6.7 6.7 0 0 1 0-13.4h270.5a6.7 6.7 0 0 1 0 13.4zM391.8 174.5H121.3a6.7 6.7 0 0 1 0-13.4h270.5a6.7 6.7 0 0 1 0 13.4zM391.8 206.5H121.3a6.7 6.7 0 0 1 0-13.4h270.5a6.7 6.7 0 0 1 0 13.4zM391.8 238.4H121.3a6.7 6.7 0 0 1 0-13.4h270.5a6.7 6.7 0 0 1 0 13.4zM391.8 270.4H121.3a6.7 6.7 0 0 1 0-13.4h270.5a6.7 6.7 0 0 1 0 13.4z"></path></g><g fill="#FFF"><path d="M200.4 388.6c-.7-1.2-1.2-2.5-1.7-4.1-.5-1.5-.8-3.1-1.1-4.7-1.5 3-3.5 5.4-5.7 7.2-2.3 1.8-5.2 2.7-8.9 2.7-6 0-10.6-1.5-13.9-4.6-3.3-3.1-5-7.3-5-12.6 0-5.7 2.1-10 6.4-13.1 4.3-3.1 10.7-4.6 19.3-4.6h7.3v-4.1c0-2.4-.6-4.3-1.7-5.6-1.2-1.3-2.9-1.9-5.3-1.9-2.1 0-3.6.5-4.6 1.4-1 1-1.5 2.5-1.5 4.5l-17.3-.1-.1-.3c-.2-5.2 1.9-9.5 6.5-13s10.6-5.2 18.2-5.2c7.1 0 12.8 1.8 17.2 5.3 4.4 3.5 6.6 8.5 6.6 15.1v21.5c0 3 .3 5.8.8 8.4.5 2.6 1.3 5.2 2.3 7.8h-17.8zm-12.5-11.5c2.2 0 4.1-.5 5.8-1.5 1.7-1 2.8-2.2 3.5-3.6v-7.5H190c-2.8 0-4.9.7-6.2 2.1-1.3 1.4-1.9 3.1-1.9 5.2 0 1.6.6 2.9 1.7 3.9 1.1.9 2.5 1.4 4.3 1.4zM262 372.7c0-1.4-.8-2.7-2.4-3.8-1.6-1.1-4.5-2.1-8.7-3-6.6-1.3-11.6-3.3-15-6-3.4-2.7-5.1-6.5-5.1-11.3 0-5 2.1-9.3 6.3-12.8 4.2-3.5 9.9-5.2 17.1-5.2 7.6 0 13.6 1.7 18.1 5.1 4.5 3.4 6.6 7.8 6.4 13.1l-.1.3h-17.3c0-2.2-.6-4-1.7-5.1-1.1-1.2-3-1.7-5.5-1.7-1.9 0-3.4.5-4.7 1.5-1.3 1-1.9 2.3-1.9 3.9 0 1.5.7 2.8 2.2 3.8 1.5 1.1 4.4 2 8.8 2.8 7 1.4 12.2 3.4 15.5 6.1 3.3 2.7 5 6.6 5 11.6 0 5.1-2.3 9.4-6.8 12.7-4.5 3.3-10.6 5-18 5-7.8 0-13.9-2-18.4-5.9s-6.7-8.3-6.5-13.2l.1-.3h16.1c.1 2.7.9 4.7 2.4 5.8 1.6 1.2 3.8 1.8 6.7 1.8 2.4 0 4.2-.5 5.4-1.4 1.4-.8 2-2.1 2-3.8zM347.9 361.4c0 8.6-1.9 15.5-5.8 20.6-3.9 5.2-9.3 7.8-16.3 7.8-2.7 0-5.2-.5-7.3-1.6-2.1-1.1-4-2.6-5.6-4.6v27h-17.8v-78.9h16.8l.5 6.2c1.6-2.3 3.5-4.1 5.7-5.4 2.2-1.3 4.7-1.9 7.6-1.9 7.1 0 12.5 2.7 16.4 8.2 3.9 5.4 5.8 12.6 5.8 21.5v1.1zm-17.8-1.1c0-4.8-.7-8.7-2.1-11.6-1.4-2.9-3.7-4.4-6.7-4.4-2 0-3.7.4-5.1 1.1-1.4.7-2.5 1.8-3.3 3.2v23.8c.8 1.2 2 2.1 3.3 2.7 1.4.6 3.1.9 5.1.9 3.1 0 5.4-1.3 6.7-3.9 1.4-2.6 2-6.2 2-10.8v-1z"></path></g></svg>